<?xml version="1.0" encoding="utf-8"?>
<!-- Generator: Adobe Illustrator 27.5.0, SVG Export Plug-In . SVG Version: 6.00 Build 0)  -->
<svg version="1.1" xmlns="http://www.w3.org/2000/svg" xmlns:xlink="http://www.w3.org/1999/xlink" x="0px" y="0px"
	 viewBox="0 0 2200 2200" style="enable-background:new 0 0 2200 2200;" xml:space="preserve">
<g id="background">
	<rect y="0" style="fill:#FFFFFF;" width="2200" height="2200"/>
</g>
<g id="Objects">
	<g>
		<g>
			<path d="M998.434,897.612c-20.905,39.747-48.921,74.352-71.013,113.301c-18.494,32.616-32.569,67.859-42.93,104.612
				c-16.391,58.147-22.025,118.677-17.596,178.832c5.161,70.204,15.773,140.193,26.318,209.909
				c10.159,67.155,13.612,115.506,9.985,183.299c-4.361,81.37-32.598,205.368-177.315,218.26
				c-160.037,14.253-191.265-119.4-195.018-211.392c-11.808-289.496-62.379-452.809-177.383-703.469
				c-29.54-64.387-35.81-141.863-8.933-207.347c26.028-63.411,88.744-107.005,155.445-128.267
				c109.573-34.933,237.504-35.768,324.165-25.278c41.049,4.973,82.638,13.174,119.529,34.248s68.852,56.796,78.943,100.906
				C1032.961,810.405,1019.339,857.865,998.434,897.612z"/>
		</g>
		<path d="M1047.317,466.703c-14.254,84.946-69.84,127.247-128.004,117.48c-58.165-9.748-96.88-67.884-82.627-152.831
			s74.805-146.984,132.97-137.216C1027.82,303.893,1061.571,381.766,1047.317,466.703z"/>
		<path d="M810.245,432.893c-0.211,69.389-38.86,110.29-86.375,110.137c-47.506-0.144-85.895-41.285-85.675-110.674
			c0.211-69.38,38.936-124.218,86.451-124.074C772.162,308.435,810.466,363.513,810.245,432.893z"/>
		<path d="M551.811,554.763c-42.282,4.898-80.786-27.635-87.937-89.385c-7.16-61.75,17.647-115.888,59.928-120.787
			c42.281-4.898,86.03,41.294,93.18,103.044C624.143,509.385,594.093,549.864,551.811,554.763z"/>
		<path d="M416.917,620.542c-36,12.749-76.203-7.99-94.823-60.565c-18.636-52.573-7.226-105.072,28.774-117.82
			c35.999-12.757,82.972,19.054,101.591,71.628C471.087,566.358,452.915,607.785,416.917,620.542z"/>
		<path d="M317.88,715.023c-28.312,18.275-67.052,8.657-93.743-32.689c-26.707-41.347-27.601-88.746,0.711-107.021
			c28.312-18.283,75.118-0.535,101.809,40.811C353.355,657.471,346.192,696.74,317.88,715.023z"/>
		<g>
			<g>
				<path style="fill:#FFFFFF;" d="M603.5,1131.257c12.194,7.111,25.754,10.723,40.674,10.837l1.609,0.01l-3.597-42.824
					l-1.476-0.169c-8.479-1.14-15.832-3.691-22.06-7.649c-6.23-3.962-11.17-9.101-14.819-15.422
					c-3.65-6.322-5.828-13.692-6.536-22.11c-0.934-11.131,1.129-21.073,6.193-29.831c5.061-8.759,12.753-15.838,23.068-21.235
					c10.314-5.399,22.828-8.716,37.54-9.952l0.145-0.012c14.611-1.227,27.383-0.035,38.31,3.58
					c10.925,3.613,19.614,9.291,26.064,17.034c6.448,7.741,10.145,17.225,11.09,28.453c0.731,8.709-0.224,16.489-2.864,23.339
					c-2.641,6.848-6.638,12.64-11.99,17.381c-5.354,4.738-11.832,8.253-19.435,10.549l-2.419,0.789l3.597,42.825l1.44-0.268
					c14.693-2.6,27.459-8.398,38.303-17.398c10.841-9.002,18.994-20.407,24.463-34.217c5.466-13.813,7.49-29.186,6.067-46.121
					c-1.716-20.422-7.534-37.742-17.45-51.967c-9.919-14.226-23.275-24.726-40.071-31.501c-16.796-6.776-36.471-9.217-59.019-7.323
					l-0.145,0.012c-22.55,1.894-41.564,7.585-57.042,17.073c-15.48,9.487-26.945,22.072-34.4,37.757
					c-7.453,15.683-10.322,33.734-8.606,54.156c1.422,16.935,5.955,31.758,13.603,44.469
					C581.384,1114.23,591.303,1124.142,603.5,1131.257z"/>
				<path style="fill:#FFFFFF;" d="M793.625,1238.305c-1.488-17.711-7.149-32.586-16.98-44.625
					c-9.833-12.039-23.119-20.815-39.856-26.329c-16.741-5.514-36.239-7.336-58.497-5.465l-0.291,0.024
					c-22.26,1.87-41.182,6.92-56.766,15.15c-15.586,8.228-27.246,19.1-34.978,32.614c-7.734,13.515-10.856,29.127-9.368,46.838
					c1.487,17.71,7.169,32.558,17.045,44.544c9.874,11.986,23.182,20.736,39.923,26.251c16.739,5.514,36.237,7.336,58.498,5.465
					l0.291-0.024c22.258-1.87,41.178-6.92,56.765-15.15c15.584-8.229,27.22-19.075,34.911-32.536
					C792.01,1271.6,795.112,1256.015,793.625,1238.305z M751.649,1264.199c-5.294,6.585-13.252,11.93-23.87,16.039
					c-10.62,4.109-23.576,6.805-38.866,8.089l-0.29,0.024c-15.293,1.286-28.54,0.79-39.742-1.485
					c-11.207-2.276-19.966-6.217-26.285-11.826c-6.319-5.61-9.846-12.768-10.577-21.478c-0.732-8.711,1.548-16.383,6.839-23.015
					c5.29-6.636,13.267-12.007,23.937-16.118c10.667-4.113,23.645-6.811,38.938-8.096l0.291-0.024
					c15.29-1.284,28.513-0.788,39.669,1.492c11.156,2.278,19.895,6.245,26.219,11.905c6.322,5.657,9.849,12.839,10.581,21.55
					C759.225,1249.966,756.943,1257.614,751.649,1264.199z"/>
				<path style="fill:#FFFFFF;" d="M738.004,1398.742c-4.616-7.714-10.606-13.581-17.968-17.6
					c-7.364-4.022-15.586-5.651-24.665-4.889l-0.801,0.068l2.356,28.04l0.909,0.025c4.35-0.232,8.318,0.577,11.902,2.429
					c3.585,1.85,6.536,4.56,8.852,8.131c2.318,3.57,3.683,7.824,4.099,12.767c0.358,4.27-0.194,8.116-1.654,11.534
					c-1.461,3.417-3.632,6.189-6.512,8.312c-2.882,2.124-6.324,3.355-10.329,3.692l-0.201,0.017
					c-3.339,0.281-6.576-0.037-9.711-0.949c-3.137-0.915-6.776-2.81-10.916-5.69c-4.142-2.88-9.377-7.179-15.707-12.901
					l-52.059-47.059l-20.729,1.742l8.825,105.05l24.035-2.019l-5.503-65.494l1.275-0.107l30.107,27.927
					c8.378,7.701,15.54,13.721,21.485,18.064c5.945,4.341,11.493,7.354,16.644,9.04c5.149,1.684,10.663,2.279,16.538,1.786
					l0.201-0.017c8.211-0.69,15.289-3.469,21.233-8.339c5.945-4.869,10.394-11.327,13.349-19.375
					c2.955-8.047,4.003-17.178,3.146-27.392C745.352,1415.385,742.618,1406.455,738.004,1398.742z"/>
			</g>
		</g>
	</g>
	<g>
		<path style="fill:#67BA31;" d="M1944.002,897.612c-20.905,39.747-48.921,74.352-71.013,113.301
			c-18.494,32.616-32.569,67.859-42.93,104.612c-16.391,58.147-22.025,118.677-17.596,178.832
			c5.161,70.204,15.773,140.193,26.318,209.909c10.158,67.155,13.612,115.506,9.985,183.299
			c-4.361,81.37-32.598,205.368-177.315,218.26c-160.037,14.253-191.265-119.4-195.018-211.392
			c-11.808-289.496-62.379-452.809-177.383-703.469c-29.54-64.387-35.81-141.863-8.933-207.347
			c26.028-63.411,88.744-107.005,155.445-128.267c109.573-34.933,237.504-35.768,324.165-25.278
			c41.049,4.973,82.638,13.174,119.528,34.248c36.891,21.074,68.852,56.796,78.943,100.906
			C1978.529,810.405,1964.907,857.865,1944.002,897.612z"/>
		<path style="fill:#67BA31;" d="M1992.885,466.703c-14.254,84.946-69.84,127.247-128.004,117.48
			c-58.165-9.748-96.88-67.884-82.627-152.831s74.805-146.984,132.97-137.216C1973.388,303.893,2007.138,381.766,1992.885,466.703z"
			/>
		<path style="fill:#67BA31;" d="M1755.813,432.893c-0.211,69.389-38.859,110.29-86.375,110.137
			c-47.506-0.144-85.896-41.285-85.675-110.674c0.211-69.38,38.936-124.218,86.451-124.074
			C1717.729,308.435,1756.033,363.513,1755.813,432.893z"/>
		<path style="fill:#67BA31;" d="M1497.379,554.763c-42.282,4.898-80.786-27.635-87.937-89.385
			c-7.16-61.75,17.647-115.888,59.928-120.787c42.281-4.898,86.03,41.294,93.18,103.044
			C1569.711,509.385,1539.66,549.864,1497.379,554.763z"/>
		<path style="fill:#67BA31;" d="M1362.484,620.542c-36,12.749-76.203-7.99-94.822-60.565
			c-18.636-52.573-7.226-105.072,28.774-117.82c35.999-12.757,82.972,19.054,101.591,71.628
			C1416.655,566.358,1398.483,607.785,1362.484,620.542z"/>
		<path style="fill:#67BA31;" d="M1263.447,715.023c-28.312,18.275-67.052,8.657-93.744-32.689
			c-26.708-41.347-27.601-88.746,0.711-107.021c28.312-18.283,75.118-0.535,101.809,40.811
			C1298.923,657.471,1291.76,696.74,1263.447,715.023z"/>
		<g>
			<g>
				<path style="fill:#FFFFFF;" d="M1549.067,1131.257c12.194,7.111,25.754,10.723,40.674,10.837l1.609,0.01l-3.597-42.824
					l-1.476-0.169c-8.479-1.14-15.832-3.691-22.06-7.649c-6.23-3.962-11.17-9.101-14.819-15.422
					c-3.65-6.322-5.828-13.692-6.536-22.11c-0.934-11.131,1.129-21.073,6.193-29.831c5.061-8.759,12.753-15.838,23.068-21.235
					c10.314-5.399,22.828-8.716,37.54-9.952l0.145-0.012c14.612-1.227,27.383-0.035,38.311,3.58
					c10.925,3.613,19.614,9.291,26.064,17.034c6.448,7.741,10.146,17.225,11.09,28.453c0.731,8.709-0.224,16.489-2.864,23.339
					c-2.641,6.848-6.638,12.64-11.99,17.381c-5.354,4.738-11.832,8.253-19.435,10.549l-2.419,0.789l3.597,42.825l1.44-0.268
					c14.693-2.6,27.459-8.398,38.303-17.398c10.841-9.002,18.994-20.407,24.463-34.217c5.467-13.813,7.49-29.186,6.067-46.121
					c-1.716-20.422-7.534-37.742-17.449-51.967c-9.919-14.226-23.275-24.726-40.072-31.501c-16.796-6.776-36.471-9.217-59.019-7.323
					l-0.145,0.012c-22.55,1.894-41.564,7.585-57.042,17.073c-15.48,9.487-26.945,22.072-34.4,37.757
					c-7.453,15.683-10.322,33.734-8.606,54.156c1.422,16.935,5.955,31.758,13.603,44.469
					C1526.951,1114.23,1536.87,1124.142,1549.067,1131.257z"/>
				<path style="fill:#FFFFFF;" d="M1739.192,1238.305c-1.488-17.711-7.149-32.586-16.98-44.625
					c-9.833-12.039-23.119-20.815-39.856-26.329c-16.741-5.514-36.239-7.336-58.497-5.465l-0.291,0.024
					c-22.26,1.87-41.182,6.92-56.766,15.15c-15.586,8.228-27.246,19.1-34.978,32.614c-7.734,13.515-10.856,29.127-9.368,46.838
					c1.487,17.71,7.169,32.558,17.045,44.544c9.874,11.986,23.182,20.736,39.923,26.251c16.739,5.514,36.238,7.336,58.498,5.465
					l0.291-0.024c22.258-1.87,41.178-6.92,56.765-15.15c15.584-8.229,27.22-19.075,34.911-32.536
					C1737.578,1271.6,1740.679,1256.015,1739.192,1238.305z M1697.217,1264.199c-5.294,6.585-13.252,11.93-23.87,16.039
					c-10.62,4.109-23.576,6.805-38.866,8.089l-0.29,0.024c-15.293,1.286-28.54,0.79-39.743-1.485
					c-11.207-2.276-19.966-6.217-26.285-11.826c-6.319-5.61-9.846-12.768-10.577-21.478c-0.732-8.711,1.548-16.383,6.839-23.015
					c5.29-6.636,13.267-12.007,23.937-16.118c10.667-4.113,23.645-6.811,38.938-8.096l0.291-0.024
					c15.29-1.284,28.513-0.788,39.669,1.492c11.156,2.278,19.896,6.245,26.219,11.905c6.322,5.657,9.849,12.839,10.581,21.55
					C1704.792,1249.966,1702.511,1257.614,1697.217,1264.199z"/>
				<path style="fill:#FFFFFF;" d="M1683.572,1398.742c-4.616-7.714-10.606-13.581-17.968-17.6
					c-7.364-4.022-15.586-5.651-24.665-4.889l-0.801,0.068l2.356,28.04l0.909,0.025c4.35-0.232,8.318,0.577,11.902,2.429
					c3.585,1.85,6.536,4.56,8.852,8.131c2.318,3.57,3.683,7.824,4.099,12.767c0.358,4.27-0.194,8.116-1.654,11.534
					c-1.461,3.417-3.632,6.189-6.512,8.312c-2.882,2.124-6.324,3.355-10.329,3.692l-0.2,0.017c-3.339,0.281-6.576-0.037-9.711-0.949
					c-3.137-0.915-6.776-2.81-10.916-5.69c-4.142-2.88-9.377-7.179-15.707-12.901l-52.059-47.059l-20.729,1.742l8.825,105.05
					l24.035-2.019l-5.503-65.494l1.275-0.107l30.107,27.927c8.378,7.701,15.54,13.721,21.485,18.064
					c5.945,4.341,11.493,7.354,16.644,9.04c5.149,1.684,10.663,2.279,16.538,1.786l0.201-0.017
					c8.211-0.69,15.289-3.469,21.233-8.339c5.945-4.869,10.395-11.327,13.349-19.375c2.955-8.047,4.003-17.178,3.146-27.392
					C1690.92,1415.385,1688.186,1406.455,1683.572,1398.742z"/>
			</g>
		</g>
	</g>
</g>
</svg>
